<svg width="48" height="49" viewBox="0 0 48 49" fill="none" xmlns="http://www.w3.org/2000/svg">
<path opacity="0.2" d="M40.5 9.42725V39.4272C40.5 39.8251 40.342 40.2066 40.0607 40.4879C39.7794 40.7692 39.3978 40.9272 39 40.9272H9C8.60218 40.9272 8.22064 40.7692 7.93934 40.4879C7.65804 40.2066 7.5 39.8251 7.5 39.4272V9.42725C7.5 9.02942 7.65804 8.64789 7.93934 8.36659C8.22064 8.08528 8.60218 7.92725 9 7.92725H39C39.3978 7.92725 39.7794 8.08528 40.0607 8.36659C40.342 8.64789 40.5 9.02942 40.5 9.42725Z" fill="url(#paint0_linear_114_191)"/>
<path d="M39 6.42725H9C8.20435 6.42725 7.44129 6.74332 6.87868 7.30593C6.31607 7.86853 6 8.6316 6 9.42725V39.4272C6 40.2229 6.31607 40.986 6.87868 41.5486C7.44129 42.1112 8.20435 42.4272 9 42.4272H39C39.7957 42.4272 40.5587 42.1112 41.1213 41.5486C41.6839 40.986 42 40.2229 42 39.4272V9.42725C42 8.6316 41.6839 7.86853 41.1213 7.30593C40.5587 6.74332 39.7957 6.42725 39 6.42725ZM39 39.4272H9V9.42725H39V39.4272ZM15 24.4272C15 24.0294 15.158 23.6479 15.4393 23.3666C15.7206 23.0853 16.1022 22.9272 16.5 22.9272H27.8794L24.4387 19.4885C24.1573 19.207 23.9992 18.8253 23.9992 18.4272C23.9992 18.0292 24.1573 17.6475 24.4387 17.366C24.7202 17.0845 25.102 16.9264 25.5 16.9264C25.898 16.9264 26.2798 17.0845 26.5613 17.366L32.5613 23.366C32.7007 23.5053 32.8114 23.6707 32.8868 23.8528C32.9623 24.0349 33.0012 24.2301 33.0012 24.4272C33.0012 24.6244 32.9623 24.8196 32.8868 25.0017C32.8114 25.1838 32.7007 25.3492 32.5613 25.4885L26.5613 31.4885C26.2798 31.77 25.898 31.9281 25.5 31.9281C25.102 31.9281 24.7202 31.77 24.4387 31.4885C24.1573 31.207 23.9992 30.8253 23.9992 30.4272C23.9992 30.0292 24.1573 29.6475 24.4387 29.366L27.8794 25.9272H16.5C16.1022 25.9272 15.7206 25.7692 15.4393 25.4879C15.158 25.2066 15 24.8251 15 24.4272Z" fill="url(#paint1_linear_114_191)"/>
<defs>
<linearGradient id="paint0_linear_114_191" x1="24" y1="7.92725" x2="24" y2="40.9272" gradientUnits="userSpaceOnUse">
<stop stop-color="#4D0FBA"/>
<stop offset="1" stop-color="#9566E6"/>
</linearGradient>
<linearGradient id="paint1_linear_114_191" x1="24" y1="6.42725" x2="24" y2="42.4272" gradientUnits="userSpaceOnUse">
<stop stop-color="#4D0FBA"/>
<stop offset="1" stop-color="#9566E6"/>
</linearGradient>
</defs>
</svg>
