<svg width="48" height="49" viewBox="0 0 48 49" fill="none" xmlns="http://www.w3.org/2000/svg">
<rect y="0.854492" width="48" height="48" rx="4" fill="#DCCFFF"/>
<path d="M18.75 27.8545C19.7446 27.8545 20.6984 27.4594 21.4017 26.7561C22.1049 26.0529 22.5 25.0991 22.5 24.1045C22.5 22.0345 21.75 21.1045 21 19.6045C19.392 16.39 20.664 13.5235 24 10.6045C24.75 14.3545 27 17.9545 30 20.3545C33 22.7545 34.5 25.6045 34.5 28.6045C34.5 29.9834 34.2284 31.3487 33.7007 32.6227C33.1731 33.8966 32.3996 35.0541 31.4246 36.0291C30.4496 37.0041 29.2921 37.7776 28.0182 38.3052C26.7443 38.8329 25.3789 39.1045 24 39.1045C22.6211 39.1045 21.2557 38.8329 19.9818 38.3052C18.7079 37.7776 17.5504 37.0041 16.5754 36.0291C15.6004 35.0541 14.8269 33.8966 14.2993 32.6227C13.7716 31.3487 13.5 29.9834 13.5 28.6045C13.5 26.875 14.1495 25.1635 15 24.1045C15 25.0991 15.3951 26.0529 16.0983 26.7561C16.8016 27.4594 17.7554 27.8545 18.75 27.8545Z" stroke="url(#paint0_linear_114_246)" stroke-width="2" stroke-linecap="round" stroke-linejoin="round"/>
<defs>
<linearGradient id="paint0_linear_114_246" x1="24" y1="10.6045" x2="24" y2="39.1045" gradientUnits="userSpaceOnUse">
<stop stop-color="#4D0FBA"/>
<stop offset="1" stop-color="#9566E6"/>
</linearGradient>
</defs>
</svg>
