<svg width="48" height="49" viewBox="0 0 48 49" fill="none" xmlns="http://www.w3.org/2000/svg">
<rect y="0.854492" width="48" height="48" rx="4" fill="#DCCFFF"/>
<path d="M34.9474 16.4336V11.381C34.9474 10.9343 34.7699 10.5059 34.4541 10.1901C34.1382 9.87422 33.7098 9.69678 33.2632 9.69678H11.3684C10.4751 9.69678 9.61829 10.0517 8.98659 10.6834C8.35489 11.3151 8 12.1718 8 13.0652C8 13.9586 8.35489 14.8153 8.98659 15.447C9.61829 16.0787 10.4751 16.4336 11.3684 16.4336H36.6316C37.0783 16.4336 37.5066 16.6111 37.8225 16.9269C38.1383 17.2428 38.3158 17.6711 38.3158 18.1178V24.8547M38.3158 24.8547H33.2632C32.3698 24.8547 31.513 25.2096 30.8813 25.8413C30.2496 26.473 29.8947 27.3297 29.8947 28.2231C29.8947 29.1165 30.2496 29.9732 30.8813 30.6049C31.513 31.2366 32.3698 31.5915 33.2632 31.5915H38.3158C38.7625 31.5915 39.1909 31.4141 39.5067 31.0982C39.8226 30.7824 40 30.354 40 29.9073V26.5389C40 26.0922 39.8226 25.6638 39.5067 25.348C39.1909 25.0321 38.7625 24.8547 38.3158 24.8547Z" stroke="url(#paint0_linear_114_228)" stroke-width="2" stroke-linecap="round" stroke-linejoin="round"/>
<path d="M8 13.0649V36.6439C8 37.5372 8.35489 38.394 8.98659 39.0257C9.61829 39.6574 10.4751 40.0123 11.3684 40.0123H36.6316C37.0783 40.0123 37.5066 39.8349 37.8225 39.519C38.1383 39.2032 38.3158 38.7748 38.3158 38.3281V31.5913" stroke="url(#paint1_linear_114_228)" stroke-width="2" stroke-linecap="round" stroke-linejoin="round"/>
<defs>
<linearGradient id="paint0_linear_114_228" x1="24" y1="9.69678" x2="24" y2="31.5915" gradientUnits="userSpaceOnUse">
<stop stop-color="#4D0FBA"/>
<stop offset="1" stop-color="#9566E6"/>
</linearGradient>
<linearGradient id="paint1_linear_114_228" x1="23.1579" y1="13.0649" x2="23.1579" y2="40.0123" gradientUnits="userSpaceOnUse">
<stop stop-color="#4D0FBA"/>
<stop offset="1" stop-color="#9566E6"/>
</linearGradient>
</defs>
</svg>
